  0
SECTION
  2
BLOCKS
  0
ENDSEC
  0
SECTION
  2
ENTITIES
  0
LINE
  8
0
 10
-117.714
 20
-8.75
 11
-117.335
 21
-13.2268
  0
LINE
  8
0
 10
-117.335
 20
-13.2268
 11
-117.252
 21
-14.2113
  0
LINE
  8
0
 10
-117.252
 20
-14.2113
 11
-114.874
 21
-28.018
  0
LINE
  8
0
 10
-114.874
 20
-28.018
 11
-114.357
 21
-31.0184
  0
LINE
  8
0
 10
-114.357
 20
-31.0184
 11
-108.183
 21
-33.7376
  0
LINE
  8
0
 10
-108.183
 20
-33.7376
 11
-97.4828
 21
-38.4505
  0
LINE
  8
0
 10
-97.4828
 20
-38.4505
 11
-97.6319
 21
-39.1041
  0
LINE
  8
0
 10
-97.6319
 20
-39.1041
 11
-97.2185
 21
-40.9154
  0
LINE
  8
0
 10
-97.2185
 20
-40.9154
 11
-97.2107
 21
-40.9494
  0
LINE
  8
0
 10
-97.2107
 20
-40.9494
 11
-97.189
 21
-40.9767
  0
LINE
  8
0
 10
-97.189
 20
-40.9767
 11
-97.1697
 21
-41.0009
  0
LINE
  8
0
 10
-97.1697
 20
-41.0009
 11
-99.9585
 21
-43.341
  0
LINE
  8
0
 10
-99.9585
 20
-43.341
 11
-102.995
 21
-45.889
  0
LINE
  8
0
 10
-102.995
 20
-45.889
 11
-102.995
 21
-45.889
  0
LINE
  8
0
 10
-102.995
 20
-45.889
 11
-103.471
 21
-46.4695
  0
LINE
  8
0
 10
-103.471
 20
-46.4695
 11
-104.251
 21
-47.4205
  0
LINE
  8
0
 10
-104.251
 20
-47.4205
 11
-102.53
 21
-51.7113
  0
LINE
  8
0
 10
-102.53
 20
-51.7113
 11
-100.372
 21
-57.0925
  0
LINE
  8
0
 10
-100.372
 20
-57.0925
 11
-105.226
 21
-63.3055
  0
LINE
  8
0
 10
-105.226
 20
-63.3055
 11
-105.226
 21
-63.3057
  0
LINE
  8
0
 10
-105.226
 20
-63.3057
 11
-109.057
 21
-68.2091
  0
LINE
  8
0
 10
-109.057
 20
-68.2091
 11
-109.096
 21
-68.2596
  0
LINE
  8
0
 10
-109.096
 20
-68.2596
 11
-109.096
 21
-68.2596
  0
LINE
  8
0
 10
-109.096
 20
-68.2596
 11
-107.73
 21
-75.119
  0
LINE
  8
0
 10
-107.73
 20
-75.119
 11
-107.49
 21
-77.4492
  0
LINE
  8
0
 10
-107.49
 20
-77.4492
 11
-107.485
 21
-77.4531
  0
LINE
  8
0
 10
-107.485
 20
-77.4531
 11
-107.413
 21
-77.5128
  0
LINE
  8
0
 10
-107.413
 20
-77.5128
 11
-107.413
 21
-77.5128
  0
LINE
  8
0
 10
-107.413
 20
-77.5128
 11
-95.6827
 21
-87.146
  0
LINE
  8
0
 10
-95.6827
 20
-87.146
 11
-94.0471
 21
-88.533
  0
LINE
  8
0
 10
-94.0471
 20
-88.533
 11
-93.7995
 21
-88.6192
  0
LINE
  8
0
 10
-93.7995
 20
-88.6192
 11
-88.6871
 21
-91.1157
  0
LINE
  8
0
 10
-88.6871
 20
-91.1157
 11
-87.8356
 21
-91.2092
  0
LINE
  8
0
 10
-87.8356
 20
-91.2092
 11
-85.1893
 21
-93.549
  0
LINE
  8
0
 10
-85.1893
 20
-93.549
 11
-75.8651
 21
-101.793
  0
LINE
  8
0
 10
-75.8651
 20
-101.793
 11
-75.8651
 21
-101.793
  0
LINE
  8
0
 10
-75.8651
 20
-101.793
 11
-74.7058
 21
-102.948
  0
LINE
  8
0
 10
-74.7058
 20
-102.948
 11
-74.6396
 21
-103.014
  0
LINE
  8
0
 10
-74.6396
 20
-103.014
 11
-74.6369
 21
-103.016
  0
LINE
  8
0
 10
-74.6369
 20
-103.016
 11
-74.3126
 21
-103.018
  0
LINE
  8
0
 10
-74.3126
 20
-103.018
 11
-66.3601
 21
-103.072
  0
LINE
  8
0
 10
-66.3601
 20
-103.072
 11
-64.9303
 21
-102.367
  0
LINE
  8
0
 10
-64.9303
 20
-102.367
 11
-64.5026
 21
-102.157
  0
LINE
  8
0
 10
-64.5026
 20
-102.157
 11
-64.4912
 21
-102.141
  0
LINE
  8
0
 10
-64.4912
 20
-102.141
 11
-64.4912
 21
-102.141
  0
LINE
  8
0
 10
-64.4912
 20
-102.141
 11
-64.4533
 21
-102.089
  0
LINE
  8
0
 10
-64.4533
 20
-102.089
 11
-60.6418
 21
-96.8427
  0
LINE
  8
0
 10
-60.6418
 20
-96.8427
 11
-55.9251
 21
-90.3507
  0
LINE
  8
0
 10
-55.9251
 20
-90.3507
 11
-56.4862
 21
-88.1673
  0
LINE
  8
0
 10
-56.4862
 20
-88.1673
 11
-57.1927
 21
-85.4182
  0
LINE
  8
0
 10
-57.1927
 20
-85.4182
 11
-54.2478
 21
-82.1475
  0
LINE
  8
0
 10
-54.2478
 20
-82.1475
 11
-47.9926
 21
-75.2005
  0
LINE
  8
0
 10
-47.9926
 20
-75.2005
 11
-39.744
 21
-69.6973
  0
LINE
  8
0
 10
-39.744
 20
-69.6973
 11
-39.7437
 21
-69.6972
  0
LINE
  8
0
 10
-39.7437
 20
-69.6972
 11
-39.4944
 21
-69.5308
  0
LINE
  8
0
 10
-39.4944
 20
-69.5308
 11
-39.3808
 21
-69.6733
  0
LINE
  8
0
 10
-39.3808
 20
-69.6733
 11
-37.7069
 21
-70.4794
  0
LINE
  8
0
 10
-37.7069
 20
-70.4794
 11
-37.6755
 21
-70.4945
  0
LINE
  8
0
 10
-37.6755
 20
-70.4945
 11
-35.7827
 21
-70.4945
  0
LINE
  8
0
 10
-35.7827
 20
-70.4945
 11
-35.7513
 21
-70.4794
  0
LINE
  8
0
 10
-35.7513
 20
-70.4794
 11
-34.0774
 21
-69.6733
  0
LINE
  8
0
 10
-34.0774
 20
-69.6733
 11
-32.919
 21
-68.2207
  0
LINE
  8
0
 10
-32.919
 20
-68.2207
 11
-32.8972
 21
-68.1935
  0
LINE
  8
0
 10
-32.8972
 20
-68.1935
 11
-32.8895
 21
-68.1595
  0
LINE
  8
0
 10
-32.8895
 20
-68.1595
 11
-32.4761
 21
-66.3481
  0
LINE
  8
0
 10
-32.4761
 20
-66.3481
 11
-32.5064
 21
-66.2152
  0
LINE
  8
0
 10
-32.5064
 20
-66.2152
 11
-26.0649
 21
-64.4386
  0
LINE
  8
0
 10
-26.0649
 20
-64.4386
 11
-19.0241
 21
-64.4386
  0
LINE
  8
0
 10
-19.0241
 20
-64.4386
 11
-6.51924
 21
-64.4386
  0
LINE
  8
0
 10
-6.51924
 20
-64.4386
 11
-5.85916
 21
-63.3243
  0
LINE
  8
0
 10
-5.85916
 20
-63.3243
 11
-5.85914
 21
-63.3243
  0
LINE
  8
0
 10
-5.85914
 20
-63.3243
 11
-5.48255
 21
-62.6886
  0
LINE
  8
0
 10
-5.48255
 20
-62.6886
 11
-2.48717
 21
-55.9087
  0
LINE
  8
0
 10
-2.48717
 20
-55.9087
 11
-1.41537
 21
-53.4828
  0
LINE
  8
0
 10
-1.41537
 20
-53.4828
 11
2.14914
 21
-53.4828
  0
LINE
  8
0
 10
2.14914
 20
-53.4828
 11
2.23048
 21
-53.4828
  0
LINE
  8
0
 10
2.23048
 20
-53.4828
 11
8.02538
 21
-53.4828
  0
LINE
  8
0
 10
8.02538
 20
-53.4828
 11
11.1518
 21
-53.4828
  0
LINE
  8
0
 10
11.1518
 20
-53.4828
 11
11.2245
 21
-53.4828
  0
LINE
  8
0
 10
11.2245
 20
-53.4828
 11
12.6007
 21
-53.4828
  0
LINE
  8
0
 10
12.6007
 20
-53.4828
 11
27.5392
 21
-53.4828
  0
LINE
  8
0
 10
27.5392
 20
-53.4828
 11
27.6488
 21
-53.4828
  0
LINE
  8
0
 10
27.6488
 20
-53.4828
 11
29.6676
 21
-53.4828
  0
LINE
  8
0
 10
29.6676
 20
-53.4828
 11
32.6257
 21
-50.4426
  0
LINE
  8
0
 10
32.6257
 20
-50.4426
 11
34.6836
 21
-48.2487
  0
LINE
  8
0
 10
34.6836
 20
-48.2487
 11
36.5377
 21
-46.2721
  0
LINE
  8
0
 10
36.5377
 20
-46.2721
 11
36.75
 21
-45.9445
  0
LINE
  8
0
 10
36.75
 20
-45.9445
 11
36.8337
 21
-45.8154
  0
LINE
  8
0
 10
36.8337
 20
-45.8154
 11
36.833
 21
-45.8017
  0
LINE
  8
0
 10
36.833
 20
-45.8017
 11
36.8292
 21
-45.7188
  0
LINE
  8
0
 10
36.8292
 20
-45.7188
 11
36.8292
 21
-45.7188
  0
LINE
  8
0
 10
36.8292
 20
-45.7188
 11
36.8292
 21
-45.7188
  0
LINE
  8
0
 10
36.8292
 20
-45.7188
 11
36.7229
 21
-43.4342
  0
LINE
  8
0
 10
36.7229
 20
-43.4342
 11
36.7229
 21
-43.434
  0
LINE
  8
0
 10
36.7229
 20
-43.434
 11
36.5377
 21
-39.4549
  0
LINE
  8
0
 10
36.5377
 20
-39.4549
 11
36.5377
 21
-39.4549
  0
LINE
  8
0
 10
36.5377
 20
-39.4549
 11
35.5603
 21
-28.4073
  0
LINE
  8
0
 10
35.5603
 20
-28.4073
 11
35.5146
 21
-27.391
  0
LINE
  8
0
 10
35.5146
 20
-27.391
 11
35.2096
 21
-20.6
  0
LINE
  8
0
 10
35.2096
 20
-20.6
 11
35.2096
 21
-3.4
  0
LINE
  8
0
 10
35.2096
 20
-3.4
 11
35.5146
 21
3.39103
  0
LINE
  8
0
 10
35.5146
 20
3.39103
 11
35.5603
 21
4.40729
  0
LINE
  8
0
 10
35.5603
 20
4.40729
 11
36.141
 21
10.9714
  0
LINE
  8
0
 10
36.141
 20
10.9714
 11
36.4539
 21
11.122
  0
LINE
  8
0
 10
36.4539
 20
11.122
 11
37.6123
 21
12.5746
  0
LINE
  8
0
 10
37.6123
 20
12.5746
 11
37.634
 21
12.6018
  0
LINE
  8
0
 10
37.634
 20
12.6018
 11
37.6417
 21
12.6358
  0
LINE
  8
0
 10
37.6417
 20
12.6358
 11
38.0552
 21
14.4471
  0
LINE
  8
0
 10
38.0552
 20
14.4471
 11
37.6417
 21
16.2585
  0
LINE
  8
0
 10
37.6417
 20
16.2585
 11
37.634
 21
16.2925
  0
LINE
  8
0
 10
37.634
 20
16.2925
 11
37.6123
 21
16.3197
  0
LINE
  8
0
 10
37.6123
 20
16.3197
 11
36.635
 21
17.5451
  0
LINE
  8
0
 10
36.635
 20
17.5451
 11
36.7229
 21
19.434
  0
LINE
  8
0
 10
36.7229
 20
19.434
 11
36.7229
 21
19.4342
  0
LINE
  8
0
 10
36.7229
 20
19.4342
 11
36.8292
 21
21.7188
  0
LINE
  8
0
 10
36.8292
 20
21.7188
 11
36.8292
 21
21.7188
  0
LINE
  8
0
 10
36.8292
 20
21.7188
 11
36.8292
 21
21.7188
  0
LINE
  8
0
 10
36.8292
 20
21.7188
 11
37.2134
 21
27.0603
  0
LINE
  8
0
 10
37.2134
 20
27.0603
 11
37.3992
 21
29.6441
  0
LINE
  8
0
 10
37.3992
 20
29.6441
 11
37.8769
 21
34.4089
  0
LINE
  8
0
 10
37.8769
 20
34.4089
 11
38.8963
 21
44.577
  0
LINE
  8
0
 10
38.8963
 20
44.577
 11
38.9013
 21
44.6264
  0
LINE
  8
0
 10
38.9013
 20
44.6264
 11
38.6011
 21
45.6244
  0
LINE
  8
0
 10
38.6011
 20
45.6244
 11
38.375
 21
46.3764
  0
LINE
  8
0
 10
38.375
 20
46.3764
 11
35.8538
 21
48.8078
  0
LINE
  8
0
 10
35.8538
 20
48.8078
 11
32.0891
 21
52.4386
  0
LINE
  8
0
 10
32.0891
 20
52.4386
 11
21.8263
 21
52.4386
  0
LINE
  8
0
 10
21.8263
 20
52.4386
 11
14.9887
 21
52.4386
  0
LINE
  8
0
 10
14.9887
 20
52.4386
 11
12.8186
 21
52.4386
  0
LINE
  8
0
 10
12.8186
 20
52.4386
 11
12.7826
 21
52.4386
  0
LINE
  8
0
 10
12.7826
 20
52.4386
 11
11.6052
 21
52.4386
  0
LINE
  8
0
 10
11.6052
 20
52.4386
 11
0.728304
 21
52.4386
  0
LINE
  8
0
 10
0.728304
 20
52.4386
 11
0.68937
 21
52.4386
  0
LINE
  8
0
 10
0.68937
 20
52.4386
 11
-4.91617
 21
52.4386
  0
LINE
  8
0
 10
-4.91617
 20
52.4386
 11
-7.51701
 21
59.3533
  0
LINE
  8
0
 10
-7.51701
 20
59.3533
 11
-8.77147
 21
62.6886
  0
LINE
  8
0
 10
-8.77147
 20
62.6886
 11
-9.13252
 21
63.298
  0
LINE
  8
0
 10
-9.13252
 20
63.298
 11
-9.13254
 21
63.2981
  0
LINE
  8
0
 10
-9.13254
 20
63.2981
 11
-9.80817
 21
64.4386
  0
LINE
  8
0
 10
-9.80817
 20
64.4386
 11
-20.4641
 21
64.4386
  0
LINE
  8
0
 10
-20.4641
 20
64.4386
 11
-20.5035
 21
64.4386
  0
LINE
  8
0
 10
-20.5035
 20
64.4386
 11
-26.0649
 21
64.4386
  0
LINE
  8
0
 10
-26.0649
 20
64.4386
 11
-29.1691
 21
66.4428
  0
LINE
  8
0
 10
-29.1691
 20
66.4428
 11
-30.4325
 21
67.2586
  0
LINE
  8
0
 10
-30.4325
 20
67.2586
 11
-35.0082
 21
67.2586
  0
LINE
  8
0
 10
-35.0082
 20
67.2586
 11
-35.0834
 21
67.5879
  0
LINE
  8
0
 10
-35.0834
 20
67.5879
 11
-35.0911
 21
67.6218
  0
LINE
  8
0
 10
-35.0911
 20
67.6218
 11
-35.1129
 21
67.6491
  0
LINE
  8
0
 10
-35.1129
 20
67.6491
 11
-36.2713
 21
69.1017
  0
LINE
  8
0
 10
-36.2713
 20
69.1017
 11
-37.9452
 21
69.9078
  0
LINE
  8
0
 10
-37.9452
 20
69.9078
 11
-37.9766
 21
69.9229
  0
LINE
  8
0
 10
-37.9766
 20
69.9229
 11
-39.8694
 21
69.9229
  0
LINE
  8
0
 10
-39.8694
 20
69.9229
 11
-39.9008
 21
69.9078
  0
LINE
  8
0
 10
-39.9008
 20
69.9078
 11
-41.5747
 21
69.1017
  0
LINE
  8
0
 10
-41.5747
 20
69.1017
 11
-42.7331
 21
67.6491
  0
LINE
  8
0
 10
-42.7331
 20
67.6491
 11
-42.7548
 21
67.6218
  0
LINE
  8
0
 10
-42.7548
 20
67.6218
 11
-42.7626
 21
67.5879
  0
LINE
  8
0
 10
-42.7626
 20
67.5879
 11
-42.8377
 21
67.2586
  0
LINE
  8
0
 10
-42.8377
 20
67.2586
 11
-46.1789
 21
67.2586
  0
LINE
  8
0
 10
-46.1789
 20
67.2586
 11
-46.2022
 21
67.2586
  0
LINE
  8
0
 10
-46.2022
 20
67.2586
 11
-47.6183
 21
65.1643
  0
LINE
  8
0
 10
-47.6183
 20
65.1643
 11
-48.1091
 21
64.4386
  0
LINE
  8
0
 10
-48.1091
 20
64.4386
 11
-59.7201
 21
64.4386
  0
LINE
  8
0
 10
-59.7201
 20
64.4386
 11
-63.075
 21
64.4386
  0
LINE
  8
0
 10
-63.075
 20
64.4386
 11
-65.4468
 21
64.4386
  0
LINE
  8
0
 10
-65.4468
 20
64.4386
 11
-65.4636
 21
64.4386
  0
LINE
  8
0
 10
-65.4636
 20
64.4386
 11
-65.9965
 21
64.4386
  0
LINE
  8
0
 10
-65.9965
 20
64.4386
 11
-77.596
 21
64.4386
  0
LINE
  8
0
 10
-77.596
 20
64.4386
 11
-77.6135
 21
64.4386
  0
LINE
  8
0
 10
-77.6135
 20
64.4386
 11
-80.17
 21
64.4386
  0
LINE
  8
0
 10
-80.17
 20
64.4386
 11
-82.4934
 21
64.4386
  0
LINE
  8
0
 10
-82.4934
 20
64.4386
 11
-82.5064
 21
64.4386
  0
LINE
  8
0
 10
-82.5064
 20
64.4386
 11
-82.9176
 21
64.4386
  0
LINE
  8
0
 10
-82.9176
 20
64.4386
 11
-94.1925
 21
64.4386
  0
LINE
  8
0
 10
-94.1925
 20
64.4386
 11
-94.2058
 21
64.4386
  0
LINE
  8
0
 10
-94.2058
 20
64.4386
 11
-96.1717
 21
64.4386
  0
LINE
  8
0
 10
-96.1717
 20
64.4386
 11
-96.1816
 21
64.4386
  0
LINE
  8
0
 10
-96.1816
 20
64.4386
 11
-96.8067
 21
63.5126
  0
LINE
  8
0
 10
-96.8067
 20
63.5126
 11
-100.41
 21
58.1764
  0
LINE
  8
0
 10
-100.41
 20
58.1764
 11
-107.41
 21
51.1764
  0
LINE
  8
0
 10
-107.41
 20
51.1764
 11
-108.765
 21
47.5243
  0
LINE
  8
0
 10
-108.765
 20
47.5243
 11
-109.178
 21
47.7232
  0
LINE
  8
0
 10
-109.178
 20
47.7232
 11
-109.209
 21
47.7384
  0
LINE
  8
0
 10
-109.209
 20
47.7384
 11
-111.102
 21
47.7384
  0
LINE
  8
0
 10
-111.102
 20
47.7384
 11
-111.134
 21
47.7232
  0
LINE
  8
0
 10
-111.134
 20
47.7232
 11
-112.807
 21
46.9171
  0
LINE
  8
0
 10
-112.807
 20
46.9171
 11
-113.966
 21
45.4645
  0
LINE
  8
0
 10
-113.966
 20
45.4645
 11
-113.988
 21
45.4373
  0
LINE
  8
0
 10
-113.988
 20
45.4373
 11
-113.995
 21
45.4033
  0
LINE
  8
0
 10
-113.995
 20
45.4033
 11
-114.409
 21
43.592
  0
LINE
  8
0
 10
-114.409
 20
43.592
 11
-113.995
 21
41.7806
  0
LINE
  8
0
 10
-113.995
 20
41.7806
 11
-113.988
 21
41.7467
  0
LINE
  8
0
 10
-113.988
 20
41.7467
 11
-113.966
 21
41.7194
  0
LINE
  8
0
 10
-113.966
 20
41.7194
 11
-112.807
 21
40.2668
  0
LINE
  8
0
 10
-112.807
 20
40.2668
 11
-111.663
 21
39.7156
  0
LINE
  8
0
 10
-111.663
 20
39.7156
 11
-112.175
 21
38.3357
  0
LINE
  8
0
 10
-112.175
 20
38.3357
 11
-113.002
 21
36.1075
  0
LINE
  8
0
 10
-113.002
 20
36.1075
 11
-114.135
 21
31.8523
  0
LINE
  8
0
 10
-114.135
 20
31.8523
 11
-114.357
 21
31.0184
  0
LINE
  8
0
 10
-114.357
 20
31.0184
 11
-114.874
 21
28.018
  0
LINE
  8
0
 10
-114.874
 20
28.018
 11
-117.252
 21
14.2113
  0
LINE
  8
0
 10
-117.252
 20
14.2113
 11
-117.335
 21
13.2268
  0
LINE
  8
0
 10
-117.335
 20
13.2268
 11
-117.714
 21
8.75
  0
LINE
  8
0
 10
-117.714
 20
8.75
 11
-117.714
 21
-8.75
  0
LINE
  8
0
 10
-115.614
 20
-8.64999
 11
-115.614
 21
8.64999
  0
LINE
  8
0
 10
-115.614
 20
8.64999
 11
-115.536
 21
9.56808
  0
LINE
  8
0
 10
-115.536
 20
9.56808
 11
-115.152
 21
14.1113
  0
LINE
  8
0
 10
-115.152
 20
14.1113
 11
-114.691
 21
16.7832
  0
LINE
  8
0
 10
-114.691
 20
16.7832
 11
-114.639
 21
17.0857
  0
LINE
  8
0
 10
-114.639
 20
17.0857
 11
-114.639
 21
-17.0857
  0
LINE
  8
0
 10
-114.639
 20
-17.0857
 11
-114.691
 21
-16.7832
  0
LINE
  8
0
 10
-114.691
 20
-16.7832
 11
-115.152
 21
-14.1113
  0
LINE
  8
0
 10
-115.152
 20
-14.1113
 11
-115.536
 21
-9.56808
  0
LINE
  8
0
 10
-115.536
 20
-9.56808
 11
-115.614
 21
-8.64999
  0
LINE
  8
0
 10
-113.199
 20
25.4471
 11
-112.257
 21
30.9184
  0
LINE
  8
0
 10
-112.257
 20
30.9184
 11
-112.047
 21
31.7074
  0
LINE
  8
0
 10
-112.047
 20
31.7074
 11
-110.902
 21
36.0075
  0
LINE
  8
0
 10
-110.902
 20
36.0075
 11
-109.626
 21
39.4456
  0
LINE
  8
0
 10
-109.626
 20
39.4456
 11
-109.209
 21
39.4456
  0
LINE
  8
0
 10
-109.209
 20
39.4456
 11
-109.178
 21
39.4607
  0
LINE
  8
0
 10
-109.178
 20
39.4607
 11
-107.504
 21
40.2668
  0
LINE
  8
0
 10
-107.504
 20
40.2668
 11
-106.346
 21
41.7194
  0
LINE
  8
0
 10
-106.346
 20
41.7194
 11
-106.324
 21
41.7467
  0
LINE
  8
0
 10
-106.324
 20
41.7467
 11
-106.316
 21
41.7806
  0
LINE
  8
0
 10
-106.316
 20
41.7806
 11
-105.903
 21
43.592
  0
LINE
  8
0
 10
-105.903
 20
43.592
 11
-106.316
 21
45.4033
  0
LINE
  8
0
 10
-106.316
 20
45.4033
 11
-106.324
 21
45.4373
  0
LINE
  8
0
 10
-106.324
 20
45.4373
 11
-106.346
 21
45.4645
  0
LINE
  8
0
 10
-106.346
 20
45.4645
 11
-107.06
 21
46.3602
  0
LINE
  8
0
 10
-107.06
 20
46.3602
 11
-106.177
 21
48.7402
  0
LINE
  8
0
 10
-106.177
 20
48.7402
 11
-105.31
 21
51.0764
  0
LINE
  8
0
 10
-105.31
 20
51.0764
 11
-100.31
 21
56.0764
  0
LINE
  8
0
 10
-100.31
 20
56.0764
 11
-95.602
 21
60.1957
  0
LINE
  8
0
 10
-95.602
 20
60.1957
 11
-94.8315
 21
60.8699
  0
LINE
  8
0
 10
-94.8315
 20
60.8699
 11
-83.2536
 21
60.8699
  0
LINE
  8
0
 10
-83.2536
 20
60.8699
 11
-81.5901
 21
60.8699
  0
LINE
  8
0
 10
-81.5901
 20
60.8699
 11
-79.3568
 21
60.8699
  0
LINE
  8
0
 10
-79.3568
 20
60.8699
 11
-78.9757
 21
60.8699
  0
LINE
  8
0
 10
-78.9757
 20
60.8699
 11
-66.9334
 21
60.8699
  0
LINE
  8
0
 10
-66.9334
 20
60.8699
 11
-64.8075
 21
60.8699
  0
LINE
  8
0
 10
-64.8075
 20
60.8699
 11
-62.5181
 21
60.8699
  0
LINE
  8
0
 10
-62.5181
 20
60.8699
 11
-62.0284
 21
60.8699
  0
LINE
  8
0
 10
-62.0284
 20
60.8699
 11
-49.7709
 21
60.8699
  0
LINE
  8
0
 10
-49.7709
 20
60.8699
 11
-47.0319
 21
60.8699
  0
LINE
  8
0
 10
-47.0319
 20
60.8699
 11
-45.6531
 21
63.0822
  0
LINE
  8
0
 10
-45.6531
 20
63.0822
 11
-45.2744
 21
63.6899
  0
LINE
  8
0
 10
-45.2744
 20
63.6899
 11
-42.5624
 21
63.6899
  0
LINE
  8
0
 10
-42.5624
 20
63.6899
 11
-41.5747
 21
62.4514
  0
LINE
  8
0
 10
-41.5747
 20
62.4514
 11
-39.9008
 21
61.6453
  0
LINE
  8
0
 10
-39.9008
 20
61.6453
 11
-39.8694
 21
61.6301
  0
LINE
  8
0
 10
-39.8694
 20
61.6301
 11
-37.9766
 21
61.6301
  0
LINE
  8
0
 10
-37.9766
 20
61.6301
 11
-37.9452
 21
61.6453
  0
LINE
  8
0
 10
-37.9452
 20
61.6453
 11
-36.2713
 21
62.4514
  0
LINE
  8
0
 10
-36.2713
 20
62.4514
 11
-35.2836
 21
63.6899
  0
LINE
  8
0
 10
-35.2836
 20
63.6899
 11
-33.4759
 21
63.6899
  0
LINE
  8
0
 10
-33.4759
 20
63.6899
 11
-33.4575
 21
63.6899
  0
LINE
  8
0
 10
-33.4575
 20
63.6899
 11
-29.6859
 21
63.6899
  0
LINE
  8
0
 10
-29.6859
 20
63.6899
 11
-26.7403
 21
61.7143
  0
LINE
  8
0
 10
-26.7403
 20
61.7143
 11
-26.7402
 21
61.7143
  0
LINE
  8
0
 10
-26.7402
 20
61.7143
 11
-25.4812
 21
60.8699
  0
LINE
  8
0
 10
-25.4812
 20
60.8699
 11
-13.6164
 21
60.8699
  0
LINE
  8
0
 10
-13.6164
 20
60.8699
 11
-9.5539
 21
60.8699
  0
LINE
  8
0
 10
-9.5539
 20
60.8699
 11
-8.75031
 21
58.8818
  0
LINE
  8
0
 10
-8.75031
 20
58.8818
 11
-5.41081
 21
50.6199
  0
LINE
  8
0
 10
-5.41081
 20
50.6199
 11
-5.18668
 21
50.1199
  0
LINE
  8
0
 10
-5.18668
 20
50.1199
 11
-5.18666
 21
50.1199
  0
LINE
  8
0
 10
-5.18666
 20
50.1199
 11
-4.6263
 21
48.8699
  0
LINE
  8
0
 10
-4.6263
 20
48.8699
 11
-4.6263
 21
48.8699
  0
LINE
  8
0
 10
-4.6263
 20
48.8699
 11
7.37891
 21
48.8699
  0
LINE
  8
0
 10
7.37891
 20
48.8699
 11
12.1492
 21
48.8699
  0
LINE
  8
0
 10
12.1492
 20
48.8699
 11
14.3125
 21
48.8699
  0
LINE
  8
0
 10
14.3125
 20
48.8699
 11
15.3697
 21
48.8699
  0
LINE
  8
0
 10
15.3697
 20
48.8699
 11
26.694
 21
48.8699
  0
LINE
  8
0
 10
26.694
 20
48.8699
 11
32.3346
 21
48.8699
  0
LINE
  8
0
 10
32.3346
 20
48.8699
 11
35.1543
 21
46.1505
  0
LINE
  8
0
 10
35.1543
 20
46.1505
 11
36.1846
 21
45.1569
  0
LINE
  8
0
 10
36.1846
 20
45.1569
 11
35.5312
 21
38.6395
  0
LINE
  8
0
 10
35.5312
 20
38.6395
 11
34.8048
 21
31.3941
  0
LINE
  8
0
 10
34.8048
 20
31.3941
 11
34.8048
 21
31.3941
  0
LINE
  8
0
 10
34.8048
 20
31.3941
 11
34.7977
 21
31.3231
  0
LINE
  8
0
 10
34.7977
 20
31.3231
 11
34.7961
 21
31.3075
  0
LINE
  8
0
 10
34.7961
 20
31.3075
 11
34.4053
 21
25.8746
  0
LINE
  8
0
 10
34.4053
 20
25.8746
 11
34.0248
 21
22.8027
  0
LINE
  8
0
 10
34.0248
 20
22.8027
 11
33.9739
 21
22.3914
  0
LINE
  8
0
 10
33.9739
 20
22.3914
 11
33.9661
 21
22.2972
  0
LINE
  8
0
 10
33.9661
 20
22.2972
 11
33.9654
 21
22.2883
  0
LINE
  8
0
 10
33.9654
 20
22.2883
 11
33.9654
 21
22.2883
  0
LINE
  8
0
 10
33.9654
 20
22.2883
 11
33.7845
 21
20.1065
  0
LINE
  8
0
 10
33.7845
 20
20.1065
 11
33.6591
 21
18.5935
  0
LINE
  8
0
 10
33.6591
 20
18.5935
 11
32.8558
 21
18.5935
  0
LINE
  8
0
 10
32.8558
 20
18.5935
 11
32.8244
 21
18.5784
  0
LINE
  8
0
 10
32.8244
 20
18.5784
 11
31.1504
 21
17.7723
  0
LINE
  8
0
 10
31.1504
 20
17.7723
 11
29.992
 21
16.3197
  0
LINE
  8
0
 10
29.992
 20
16.3197
 11
29.9703
 21
16.2925
  0
LINE
  8
0
 10
29.9703
 20
16.2925
 11
29.9625
 21
16.2585
  0
LINE
  8
0
 10
29.9625
 20
16.2585
 11
29.5491
 21
14.4471
  0
LINE
  8
0
 10
29.5491
 20
14.4471
 11
29.9625
 21
12.6358
  0
LINE
  8
0
 10
29.9625
 20
12.6358
 11
29.9703
 21
12.6018
  0
LINE
  8
0
 10
29.9703
 20
12.6018
 11
29.992
 21
12.5746
  0
LINE
  8
0
 10
29.992
 20
12.5746
 11
31.1504
 21
11.122
  0
LINE
  8
0
 10
31.1504
 20
11.122
 11
32.8244
 21
10.3159
  0
LINE
  8
0
 10
32.8244
 20
10.3159
 11
32.8558
 21
10.3008
  0
LINE
  8
0
 10
32.8558
 20
10.3008
 11
32.9716
 21
10.3008
  0
LINE
  8
0
 10
32.9716
 20
10.3008
 11
32.4949
 21
4.54993
  0
LINE
  8
0
 10
32.4949
 20
4.54993
 11
32.4949
 21
4.54993
  0
LINE
  8
0
 10
32.4949
 20
4.54993
 11
32.4917
 21
4.51105
  0
LINE
  8
0
 10
32.4917
 20
4.51105
 11
32.4863
 21
4.4468
  0
LINE
  8
0
 10
32.4863
 20
4.4468
 11
32.3945
 21
2.26483
  0
LINE
  8
0
 10
32.3945
 20
2.26483
 11
32.1603
 21
-3.3
  0
LINE
  8
0
 10
32.1603
 20
-3.3
 11
32.1603
 21
-20.7
  0
LINE
  8
0
 10
32.1603
 20
-20.7
 11
32.3945
 21
-26.2648
  0
LINE
  8
0
 10
32.3945
 20
-26.2648
 11
32.4863
 21
-28.4468
  0
LINE
  8
0
 10
32.4863
 20
-28.4468
 11
32.4917
 21
-28.5111
  0
LINE
  8
0
 10
32.4917
 20
-28.5111
 11
32.4949
 21
-28.5499
  0
LINE
  8
0
 10
32.4949
 20
-28.5499
 11
32.4949
 21
-28.5499
  0
LINE
  8
0
 10
32.4949
 20
-28.5499
 11
33.7845
 21
-44.1065
  0
LINE
  8
0
 10
33.7845
 20
-44.1065
 11
33.9654
 21
-46.2883
  0
LINE
  8
0
 10
33.9654
 20
-46.2883
 11
33.9654
 21
-46.2883
  0
LINE
  8
0
 10
33.9654
 20
-46.2883
 11
32.7623
 21
-47.7731
  0
LINE
  8
0
 10
32.7623
 20
-47.7731
 11
31.4328
 21
-49.1394
  0
LINE
  8
0
 10
31.4328
 20
-49.1394
 11
30.0618
 21
-50.5485
  0
LINE
  8
0
 10
30.0618
 20
-50.5485
 11
20.136
 21
-50.5485
  0
LINE
  8
0
 10
20.136
 20
-50.5485
 11
13.0773
 21
-50.5485
  0
LINE
  8
0
 10
13.0773
 20
-50.5485
 11
10.6706
 21
-50.5485
  0
LINE
  8
0
 10
10.6706
 20
-50.5485
 11
8.73968
 21
-50.5485
  0
LINE
  8
0
 10
8.73968
 20
-50.5485
 11
1.3175
 21
-50.5485
  0
LINE
  8
0
 10
1.3175
 20
-50.5485
 11
-8.0139
 21
-50.5485
  0
LINE
  8
0
 10
-8.0139
 20
-50.5485
 11
-8.0139
 21
-50.5485
  0
LINE
  8
0
 10
-8.0139
 20
-50.5485
 11
-8.4685
 21
-51.0191
  0
LINE
  8
0
 10
-8.4685
 20
-51.0191
 11
-8.8889
 21
-51.4543
  0
LINE
  8
0
 10
-8.8889
 20
-51.4543
 11
-8.88543
 21
-51.5044
  0
LINE
  8
0
 10
-8.88543
 20
-51.5044
 11
-8.81775
 21
-52.4804
  0
LINE
  8
0
 10
-8.81775
 20
-52.4804
 11
-8.75163
 21
-53.4338
  0
LINE
  8
0
 10
-8.75163
 20
-53.4338
 11
-8.74823
 21
-53.4828
  0
LINE
  8
0
 10
-8.74823
 20
-53.4828
 11
-8.69931
 21
-53.4828
  0
LINE
  8
0
 10
-8.69931
 20
-53.4828
 11
-4.7592
 21
-53.4828
  0
LINE
  8
0
 10
-4.7592
 20
-53.4828
 11
-5.76763
 21
-56.4053
  0
LINE
  8
0
 10
-5.76763
 20
-56.4053
 11
-7.30817
 21
-60.8699
  0
LINE
  8
0
 10
-7.30817
 20
-60.8699
 11
-11.9116
 21
-60.8699
  0
LINE
  8
0
 10
-11.9116
 20
-60.8699
 11
-25.4812
 21
-60.8699
  0
LINE
  8
0
 10
-25.4812
 20
-60.8699
 11
-27.8901
 21
-61.7188
  0
LINE
  8
0
 10
-27.8901
 20
-61.7188
 11
-33.5319
 21
-63.7069
  0
LINE
  8
0
 10
-33.5319
 20
-63.7069
 11
-34.0774
 21
-63.023
  0
LINE
  8
0
 10
-34.0774
 20
-63.023
 11
-35.7513
 21
-62.2169
  0
LINE
  8
0
 10
-35.7513
 20
-62.2169
 11
-35.7827
 21
-62.2018
  0
LINE
  8
0
 10
-35.7827
 20
-62.2018
 11
-37.6755
 21
-62.2018
  0
LINE
  8
0
 10
-37.6755
 20
-62.2018
 11
-37.7069
 21
-62.2169
  0
LINE
  8
0
 10
-37.7069
 20
-62.2169
 11
-39.3808
 21
-63.023
  0
LINE
  8
0
 10
-39.3808
 20
-63.023
 11
-40.5392
 21
-64.4756
  0
LINE
  8
0
 10
-40.5392
 20
-64.4756
 11
-40.5609
 21
-64.5028
  0
LINE
  8
0
 10
-40.5609
 20
-64.5028
 11
-40.5687
 21
-64.5368
  0
LINE
  8
0
 10
-40.5687
 20
-64.5368
 11
-40.9821
 21
-66.3481
  0
LINE
  8
0
 10
-40.9821
 20
-66.3481
 11
-40.6502
 21
-67.8021
  0
LINE
  8
0
 10
-40.6502
 20
-67.8021
 11
-49.0657
 21
-73.271
  0
LINE
  8
0
 10
-49.0657
 20
-73.271
 11
-50.1479
 21
-74.0971
  0
LINE
  8
0
 10
-50.1479
 20
-74.0971
 11
-50.64
 21
-74.4727
  0
LINE
  8
0
 10
-50.64
 20
-74.4727
 11
-50.656
 21
-74.4904
  0
LINE
  8
0
 10
-50.656
 20
-74.4904
 11
-57.4945
 21
-82.0854
  0
LINE
  8
0
 10
-57.4945
 20
-82.0854
 11
-60.2589
 21
-85.1556
  0
LINE
  8
0
 10
-60.2589
 20
-85.1556
 11
-60.2589
 21
-85.1556
  0
LINE
  8
0
 10
-60.2589
 20
-85.1556
 11
-60.2924
 21
-85.1928
  0
LINE
  8
0
 10
-60.2924
 20
-85.1928
 11
-59.6814
 21
-88.0283
  0
LINE
  8
0
 10
-59.6814
 20
-88.0283
 11
-59.2798
 21
-89.8924
  0
LINE
  8
0
 10
-59.2798
 20
-89.8924
 11
-59.2798
 21
-89.8924
  0
LINE
  8
0
 10
-59.2798
 20
-89.8924
 11
-64.3043
 21
-96.8081
  0
LINE
  8
0
 10
-64.3043
 20
-96.8081
 11
-67.0878
 21
-100.639
  0
LINE
  8
0
 10
-67.0878
 20
-100.639
 11
-67.1078
 21
-100.639
  0
LINE
  8
0
 10
-67.1078
 20
-100.639
 11
-69.8483
 21
-100.621
  0
LINE
  8
0
 10
-69.8483
 20
-100.621
 11
-72.2913
 21
-100.653
  0
LINE
  8
0
 10
-72.2913
 20
-100.653
 11
-85.7021
 21
-88.9208
  0
LINE
  8
0
 10
-85.7021
 20
-88.9208
 11
-91.3048
 21
-86.1824
  0
LINE
  8
0
 10
-91.3048
 20
-86.1824
 11
-92.0037
 21
-85.9792
  0
LINE
  8
0
 10
-92.0037
 20
-85.9792
 11
-93.3889
 21
-84.8446
  0
LINE
  8
0
 10
-93.3889
 20
-84.8446
 11
-105.334
 21
-75.0612
  0
LINE
  8
0
 10
-105.334
 20
-75.0612
 11
-105.991
 21
-68.2754
  0
LINE
  8
0
 10
-105.991
 20
-68.2754
 11
-106.014
 21
-68.1619
  0
LINE
  8
0
 10
-106.014
 20
-68.1619
 11
-106.022
 21
-68.1232
  0
LINE
  8
0
 10
-106.022
 20
-68.1232
 11
-101.659
 21
-62.5397
  0
LINE
  8
0
 10
-101.659
 20
-62.5397
 11
-97.3225
 21
-56.989
  0
LINE
  8
0
 10
-97.3225
 20
-56.989
 11
-97.3223
 21
-56.9886
  0
LINE
  8
0
 10
-97.3223
 20
-56.9886
 11
-97.3223
 21
-56.9886
  0
LINE
  8
0
 10
-97.3223
 20
-56.9886
 11
-97.2968
 21
-56.9561
  0
LINE
  8
0
 10
-97.2968
 20
-56.9561
 11
-99.0909
 21
-52.854
  0
LINE
  8
0
 10
-99.0909
 20
-52.854
 11
-101.342
 21
-47.7061
  0
LINE
  8
0
 10
-101.342
 20
-47.7061
 11
-99.9301
 21
-46.5211
  0
LINE
  8
0
 10
-99.9301
 20
-46.5211
 11
-99.9299
 21
-46.5209
  0
LINE
  8
0
 10
-99.9299
 20
-46.5209
 11
-95.4099
 21
-42.7282
  0
LINE
  8
0
 10
-95.4099
 20
-42.7282
 11
-94.3567
 21
-43.2354
  0
LINE
  8
0
 10
-94.3567
 20
-43.2354
 11
-94.3253
 21
-43.2505
  0
LINE
  8
0
 10
-94.3253
 20
-43.2505
 11
-92.4325
 21
-43.2505
  0
LINE
  8
0
 10
-92.4325
 20
-43.2505
 11
-92.4011
 21
-43.2354
  0
LINE
  8
0
 10
-92.4011
 20
-43.2354
 11
-90.7272
 21
-42.4292
  0
LINE
  8
0
 10
-90.7272
 20
-42.4292
 11
-89.5688
 21
-40.9767
  0
LINE
  8
0
 10
-89.5688
 20
-40.9767
 11
-89.5471
 21
-40.9494
  0
LINE
  8
0
 10
-89.5471
 20
-40.9494
 11
-89.5393
 21
-40.9154
  0
LINE
  8
0
 10
-89.5393
 20
-40.9154
 11
-89.1259
 21
-39.1041
  0
LINE
  8
0
 10
-89.1259
 20
-39.1041
 11
-89.5393
 21
-37.2928
  0
LINE
  8
0
 10
-89.5393
 20
-37.2928
 11
-89.5471
 21
-37.2588
  0
LINE
  8
0
 10
-89.5471
 20
-37.2588
 11
-89.5688
 21
-37.2315
  0
LINE
  8
0
 10
-89.5688
 20
-37.2315
 11
-90.7272
 21
-35.779
  0
LINE
  8
0
 10
-90.7272
 20
-35.779
 11
-92.4011
 21
-34.9728
  0
LINE
  8
0
 10
-92.4011
 20
-34.9728
 11
-92.4325
 21
-34.9577
  0
LINE
  8
0
 10
-92.4325
 20
-34.9577
 11
-94.3253
 21
-34.9577
  0
LINE
  8
0
 10
-94.3253
 20
-34.9577
 11
-94.3567
 21
-34.9728
  0
LINE
  8
0
 10
-94.3567
 20
-34.9728
 11
-96.0306
 21
-35.779
  0
LINE
  8
0
 10
-96.0306
 20
-35.779
 11
-96.6308
 21
-36.5315
  0
LINE
  8
0
 10
-96.6308
 20
-36.5315
 11
-106.326
 21
-33.049
  0
LINE
  8
0
 10
-106.326
 20
-33.049
 11
-112.257
 21
-30.9184
  0
LINE
  8
0
 10
-112.257
 20
-30.9184
 11
-112.855
 21
-27.4471
  0
LINE
  8
0
 10
-112.855
 20
-27.4471
 11
-105.639
 21
-27.4471
  0
LINE
  8
0
 10
-105.639
 20
-27.4471
 11
-105.639
 21
25.4471
  0
LINE
  8
0
 10
-105.639
 20
25.4471
 11
-113.199
 21
25.4471
  0
LINE
  8
0
 10
-111.856
 20
43.592
 11
-111.006
 21
45.0642
  0
LINE
  8
0
 10
-111.006
 20
45.0642
 11
-109.306
 21
45.0642
  0
LINE
  8
0
 10
-109.306
 20
45.0642
 11
-108.456
 21
43.592
  0
LINE
  8
0
 10
-108.456
 20
43.592
 11
-109.306
 21
42.1197
  0
LINE
  8
0
 10
-109.306
 20
42.1197
 11
-111.006
 21
42.1197
  0
LINE
  8
0
 10
-111.006
 20
42.1197
 11
-111.856
 21
43.592
  0
LINE
  8
0
 10
-95.0789
 20
-39.1041
 11
-94.2289
 21
-37.6319
  0
LINE
  8
0
 10
-94.2289
 20
-37.6319
 11
-92.5289
 21
-37.6319
  0
LINE
  8
0
 10
-92.5289
 20
-37.6319
 11
-91.6789
 21
-39.1041
  0
LINE
  8
0
 10
-91.6789
 20
-39.1041
 11
-92.5289
 21
-40.5763
  0
LINE
  8
0
 10
-92.5289
 20
-40.5763
 11
-94.2289
 21
-40.5763
  0
LINE
  8
0
 10
-94.2289
 20
-40.5763
 11
-95.0789
 21
-39.1041
  0
LINE
  8
0
 10
-40.623
 20
65.7765
 11
-39.773
 21
67.2488
  0
LINE
  8
0
 10
-39.773
 20
67.2488
 11
-38.073
 21
67.2488
  0
LINE
  8
0
 10
-38.073
 20
67.2488
 11
-37.223
 21
65.7765
  0
LINE
  8
0
 10
-37.223
 20
65.7765
 11
-38.073
 21
64.3043
  0
LINE
  8
0
 10
-38.073
 20
64.3043
 11
-39.773
 21
64.3043
  0
LINE
  8
0
 10
-39.773
 20
64.3043
 11
-40.623
 21
65.7765
  0
LINE
  8
0
 10
-38.4291
 20
-66.3481
 11
-37.5791
 21
-64.8759
  0
LINE
  8
0
 10
-37.5791
 20
-64.8759
 11
-35.8791
 21
-64.8759
  0
LINE
  8
0
 10
-35.8791
 20
-64.8759
 11
-35.0291
 21
-66.3481
  0
LINE
  8
0
 10
-35.0291
 20
-66.3481
 11
-35.8791
 21
-67.8204
  0
LINE
  8
0
 10
-35.8791
 20
-67.8204
 11
-37.5791
 21
-67.8204
  0
LINE
  8
0
 10
-37.5791
 20
-67.8204
 11
-38.4291
 21
-66.3481
  0
LINE
  8
0
 10
32.1021
 20
14.4471
 11
32.9521
 21
15.9194
  0
LINE
  8
0
 10
32.9521
 20
15.9194
 11
34.6521
 21
15.9194
  0
LINE
  8
0
 10
34.6521
 20
15.9194
 11
35.5021
 21
14.4471
  0
LINE
  8
0
 10
35.5021
 20
14.4471
 11
34.6521
 21
12.9749
  0
LINE
  8
0
 10
34.6521
 20
12.9749
 11
32.9521
 21
12.9749
  0
LINE
  8
0
 10
32.9521
 20
12.9749
 11
32.1021
 21
14.4471
  0
ENDSEC
  0
SECTION
  2
OBJECTS
  0
DICTIONARY
  0
ENDSEC
  0
EOF
